<svg width="235" height="212" viewBox="0 0 235 212" fill="none" xmlns="http://www.w3.org/2000/svg">
<path d="M68.3454 36.884C68.3454 36.884 60.6454 17.784 45.8454 23.884C45.8454 23.884 45.5454 38.484 68.3454 36.884Z" fill="#ECE4A0"/>
<path d="M56.9454 0.0839996C56.9454 0.0839996 61.4454 20.184 45.8454 23.484C45.7454 23.484 37.2454 11.584 56.9454 0.0839996Z" fill="#ECE4A0"/>
<path d="M53.7454 50.984C53.7454 50.984 41.3454 34.484 28.6454 44.184C28.7454 44.184 32.2454 58.484 53.7454 50.984Z" fill="#ECE4A0"/>
<path d="M33.2454 18.384C33.2454 18.384 42.8454 36.684 28.5454 43.884C28.5454 43.884 17.2454 34.584 33.2454 18.384Z" fill="#ECE4A0"/>
<path d="M43.3454 68.384C43.3454 68.384 27.1454 55.684 17.3454 68.384C17.4454 68.384 24.5454 81.184 43.3454 68.384Z" fill="#ECE4A0"/>
<path d="M15.1454 42.184C15.1454 42.184 29.1454 57.384 17.2454 68.084C17.2454 68.084 3.8454 62.084 15.1454 42.184Z" fill="#ECE4A0"/>
<path d="M37.8454 87.884C37.8454 87.884 18.8454 79.784 12.7454 94.584C12.7454 94.584 22.9454 105.084 37.8454 87.884Z" fill="#ECE4A0"/>
<path d="M3.8454 69.884C3.8454 69.884 21.2454 80.984 12.5454 94.284C12.5454 94.384 -1.9546 91.984 3.8454 69.884Z" fill="#ECE4A0"/>
<path d="M37.5454 108.084C37.5454 108.084 17.1454 105.184 15.0454 120.984C15.0454 121.084 27.6454 128.684 37.5454 108.084Z" fill="#ECE4A0"/>
<path d="M0.0454102 99.584C0.0454102 99.584 19.7454 105.784 14.7454 120.984C14.7454 120.984 0.14541 122.384 0.0454102 99.584Z" fill="#ECE4A0"/>
<path d="M42.5454 127.784C42.5454 127.784 22.0454 130.284 24.1454 146.084C24.1454 146.084 38.2454 150.184 42.5454 127.784Z" fill="#ECE4A0"/>
<path d="M4.04541 129.284C4.04541 129.284 24.6454 130.184 23.8454 146.084C23.8454 146.084 10.1454 151.284 4.04541 129.284Z" fill="#ECE4A0"/>
<path d="M52.4454 145.484C52.4454 145.484 33.3454 153.184 39.4454 167.984C39.4454 167.884 54.0454 168.184 52.4454 145.484Z" fill="#ECE4A0"/>
<path d="M15.6454 156.884C15.6454 156.884 35.7454 152.384 39.1454 167.984C39.0454 167.984 27.1454 176.584 15.6454 156.884Z" fill="#ECE4A0"/>
<path d="M66.5454 159.984C66.5454 159.984 50.0454 172.384 59.7454 185.084C59.7454 185.084 74.0454 181.584 66.5454 159.984Z" fill="#ECE4A0"/>
<path d="M33.9454 180.484C33.9454 180.484 52.2454 170.884 59.4454 185.184C59.4454 185.184 50.1454 196.584 33.9454 180.484Z" fill="#ECE4A0"/>
<path d="M83.9453 170.384C83.9453 170.384 71.2453 186.584 83.9453 196.384C83.9453 196.284 96.7453 189.284 83.9453 170.384Z" fill="#ECE4A0"/>
<path d="M57.7454 198.584C57.7454 198.584 72.9454 184.584 83.6454 196.484C83.6454 196.584 77.6454 209.884 57.7454 198.584Z" fill="#ECE4A0"/>
<path d="M103.445 175.884C103.445 175.884 95.3454 194.884 110.145 200.984C110.145 200.984 120.645 190.784 103.445 175.884Z" fill="#ECE4A0"/>
<path d="M85.4454 209.984C85.4454 209.984 96.5454 192.584 109.945 201.284C109.945 201.284 107.545 215.684 85.4454 209.984Z" fill="#ECE4A0"/>
<path d="M86.9454 8.984C86.9454 8.984 67.2454 2.884 62.6454 18.184C62.7454 18.184 73.9454 27.684 86.9454 8.984Z" fill="#ECE4A0"/>
<path d="M166.645 36.884C166.645 36.884 174.345 17.784 189.145 23.884C189.145 23.884 189.445 38.484 166.645 36.884Z" fill="#ECE4A0"/>
<path d="M178.045 0.0839996C178.045 0.0839996 173.545 20.184 189.145 23.484C189.245 23.484 197.745 11.584 178.045 0.0839996Z" fill="#ECE4A0"/>
<path d="M181.245 50.984C181.245 50.984 193.645 34.484 206.345 44.184C206.245 44.184 202.745 58.484 181.245 50.984Z" fill="#ECE4A0"/>
<path d="M201.745 18.384C201.745 18.384 192.145 36.684 206.445 43.884C206.445 43.884 217.745 34.584 201.745 18.384Z" fill="#ECE4A0"/>
<path d="M191.645 68.384C191.645 68.384 207.845 55.684 217.645 68.384C217.545 68.384 210.445 81.184 191.645 68.384Z" fill="#ECE4A0"/>
<path d="M219.845 42.184C219.845 42.184 205.845 57.384 217.745 68.084C217.745 68.084 231.145 62.084 219.845 42.184Z" fill="#ECE4A0"/>
<path d="M197.145 87.884C197.145 87.884 216.145 79.784 222.245 94.584C222.245 94.584 212.045 105.084 197.145 87.884Z" fill="#ECE4A0"/>
<path d="M231.145 69.884C231.145 69.884 213.745 80.984 222.445 94.284C222.445 94.384 236.945 91.984 231.145 69.884Z" fill="#ECE4A0"/>
<path d="M197.445 108.084C197.445 108.084 217.845 105.184 219.945 120.984C219.945 121.084 207.345 128.684 197.445 108.084Z" fill="#ECE4A0"/>
<path d="M234.945 99.584C234.945 99.584 215.245 105.784 220.245 120.984C220.245 120.984 234.845 122.384 234.945 99.584Z" fill="#ECE4A0"/>
<path d="M192.445 127.784C192.445 127.784 212.945 130.284 210.845 146.084C210.845 146.084 196.745 150.184 192.445 127.784Z" fill="#ECE4A0"/>
<path d="M230.945 129.284C230.945 129.284 210.345 130.184 211.145 146.084C211.145 146.084 224.845 151.284 230.945 129.284Z" fill="#ECE4A0"/>
<path d="M182.545 145.484C182.545 145.484 201.645 153.184 195.545 167.984C195.545 167.884 180.945 168.184 182.545 145.484Z" fill="#ECE4A0"/>
<path d="M219.345 156.884C219.345 156.884 199.245 152.384 195.845 167.984C195.945 167.984 207.845 176.584 219.345 156.884Z" fill="#ECE4A0"/>
<path d="M168.445 159.984C168.445 159.984 184.945 172.384 175.245 185.084C175.245 185.084 160.945 181.584 168.445 159.984Z" fill="#ECE4A0"/>
<path d="M201.045 180.484C201.045 180.484 182.745 170.884 175.545 185.184C175.545 185.184 184.845 196.584 201.045 180.484Z" fill="#ECE4A0"/>
<path d="M151.045 170.384C151.045 170.384 163.745 186.584 151.045 196.384C151.045 196.284 138.245 189.284 151.045 170.384Z" fill="#ECE4A0"/>
<path d="M177.245 198.584C177.245 198.584 162.045 184.584 151.345 196.484C151.345 196.584 157.345 209.884 177.245 198.584Z" fill="#ECE4A0"/>
<path d="M131.545 175.884C131.545 175.884 139.645 194.884 124.845 200.984C124.845 200.984 114.345 190.784 131.545 175.884Z" fill="#ECE4A0"/>
<path d="M149.545 209.984C149.545 209.984 138.445 192.584 125.145 201.284C125.045 201.284 127.445 215.684 149.545 209.984Z" fill="#ECE4A0"/>
<path d="M148.045 8.984C148.045 8.984 167.745 2.884 172.345 18.184C172.245 18.184 161.045 27.684 148.045 8.984Z" fill="#ECE4A0"/>
<path d="M118.245 57.184C110.745 78.084 106.045 99.084 106.045 99.084C103.145 88.284 96.0455 71.684 94.0455 67.084C93.8455 67.084 93.7455 67.084 93.5455 67.184C93.6455 78.584 88.1454 100.884 88.1454 100.884C84.8454 91.384 71.4455 74.884 70.8455 74.084C72.5455 84.184 73.9455 122.184 73.9455 122.184H118.345V57.384C118.345 57.184 118.245 57.184 118.245 57.184Z" fill="#CED2FF"/>
<path d="M119.945 56.884C121.345 56.284 122.345 54.884 122.345 53.284C122.345 51.084 120.545 49.284 118.345 49.284C116.145 49.284 114.345 51.084 114.345 53.284C114.345 55.484 116.045 57.184 118.245 57.284C118.245 57.184 118.345 57.084 118.345 56.984H119.945V56.884Z" fill="#CED2FF"/>
<path d="M118.345 56.884C118.345 56.984 118.245 57.084 118.245 57.184H118.345V56.884Z" fill="#CED2FF"/>
<path d="M93.4454 65.784C93.4454 65.784 93.6455 66.284 94.0455 67.084C95.8455 66.684 97.2455 65.084 97.2455 63.184C97.2455 60.984 95.4455 59.184 93.2455 59.184C91.0455 59.184 89.2455 60.984 89.2455 63.184C89.2455 65.384 91.0455 67.184 93.2455 67.184C93.3455 67.184 93.4455 67.184 93.5455 67.184C93.5455 66.684 93.4454 66.284 93.4454 65.784Z" fill="#CED2FF"/>
<path d="M93.4454 65.784C93.4454 66.184 93.4454 66.684 93.4454 67.084C93.6454 67.084 93.8454 67.084 93.9454 66.984C93.6454 66.284 93.4454 65.784 93.4454 65.784Z" fill="#CED2FF"/>
<path d="M70.8454 73.984C72.6454 73.584 73.9454 71.984 73.9454 70.084C73.9454 67.884 72.1454 66.084 69.9454 66.084C67.7454 66.084 65.9454 67.884 65.9454 70.084C65.9454 72.284 67.7454 74.084 69.9454 74.084C70.2454 74.084 70.5454 74.084 70.8454 73.984Z" fill="#CED2FF"/>
<path d="M148.545 100.784C148.545 100.784 143.145 78.484 143.145 67.084C142.945 67.084 142.845 67.084 142.645 66.984C140.645 71.584 133.445 88.184 130.645 98.984C130.645 98.984 125.945 77.984 118.445 57.084H118.345V121.884H162.845C162.845 121.884 164.245 83.784 165.945 73.784C165.945 73.984 151.945 90.984 148.545 100.784Z" fill="#ECE4A0"/>
<path d="M118.445 57.184C118.945 57.184 119.445 57.084 119.945 56.884H118.345C118.445 56.984 118.445 57.084 118.445 57.184Z" fill="#CED2FF"/>
<path d="M118.345 57.184H118.445C118.445 57.084 118.345 56.984 118.345 56.884V57.184Z" fill="#CED2FF"/>
<path d="M143.245 67.084C143.345 67.084 143.445 67.084 143.645 67.084C145.845 67.084 147.645 65.284 147.645 63.084C147.645 60.884 145.845 59.084 143.645 59.084C141.445 59.084 139.645 60.884 139.645 63.084C139.645 64.984 140.945 66.584 142.745 66.984C143.045 66.184 143.245 65.784 143.245 65.784C143.245 66.284 143.245 66.684 143.245 67.084Z" fill="#CED2FF"/>
<path d="M143.245 65.784C143.245 65.784 143.045 66.184 142.745 66.984C142.945 66.984 143.045 67.084 143.245 67.084C143.245 66.684 143.245 66.284 143.245 65.784Z" fill="#CED2FF"/>
<path d="M167.545 66.084C165.345 66.084 163.545 67.884 163.545 70.084C163.545 72.284 165.345 74.084 167.545 74.084C169.745 74.084 171.545 72.284 171.545 70.084C171.545 67.884 169.745 66.084 167.545 66.084Z" fill="#CED2FF"/>
</svg>

