<svg width="1606" height="980" viewBox="0 0 1606 980" fill="none" xmlns="http://www.w3.org/2000/svg">
<path d="M1606 0H2V698H1606V0Z" fill="#C7EAFB"/>
<path d="M1603.5 722H0V980H1603.5V722Z" fill="#8ECC89"/>
<path d="M1604 690H0V722H1604V690Z" fill="#ABE386"/>
<path d="M990.5 627.338C990.5 630.823 986.676 633.648 982.5 633.648C978.324 633.648 974.5 630.824 974.5 627.338V562.439C974.5 558.954 978.324 556.13 982.5 556.13C986.676 556.13 990.5 558.953 990.5 562.439V627.338Z" fill="#CECECE"/>
<path d="M945.5 623.731C945.5 627.217 942.176 630.042 938 630.042C933.824 630.042 930.5 627.218 930.5 623.731V558.834C930.5 555.348 933.824 552.524 938 552.524C942.176 552.524 945.5 555.347 945.5 558.834V623.731Z" fill="#CECECE"/>
<path d="M898.5 625.535C898.5 629.02 895.176 631.844 891 631.844C886.824 631.844 883.5 629.021 883.5 625.535V548.017C883.5 544.531 886.824 541.707 891 541.707C895.176 541.707 898.5 544.53 898.5 548.017V625.535Z" fill="#CECECE"/>
<path d="M854.5 625.535C854.5 629.02 850.676 631.844 846.5 631.844C842.324 631.844 838.5 629.021 838.5 625.535V548.017C838.5 544.531 842.324 541.707 846.5 541.707C850.676 541.707 854.5 544.53 854.5 548.017V625.535Z" fill="#CECECE"/>
<path d="M809.5 625.535C809.5 629.02 806.176 631.844 802 631.844C797.824 631.844 794.5 629.021 794.5 625.535V548.017C794.5 544.531 797.824 541.707 802 541.707C806.176 541.707 809.5 544.53 809.5 548.017V625.535Z" fill="#CECECE"/>
<path d="M763.5 623.731C763.5 627.217 759.676 630.042 755.5 630.042C751.324 630.042 747.5 627.218 747.5 623.731V558.834C747.5 555.348 751.324 552.524 755.5 552.524C759.676 552.524 763.5 555.347 763.5 558.834V623.731Z" fill="#CECECE"/>
<path d="M718.5 623.731C718.5 627.217 714.676 630.042 710.5 630.042C706.324 630.042 702.5 627.218 702.5 623.731V558.834C702.5 555.348 706.324 552.524 710.5 552.524C714.676 552.524 718.5 555.347 718.5 558.834V623.731Z" fill="#CECECE"/>
<path d="M680.5 634.335C680.5 634.335 891.772 634.335 997.332 634.335C999.412 634.335 1001.5 634.335 1003.5 634.335C1013.5 634.335 1013.5 621.335 1003.5 621.335C898.5 621.335 792.455 621.335 686.895 621.335C684.815 621.335 682.5 621.335 680.5 621.335C670.5 621.335 670.5 634.335 680.5 634.335C670.5 634.335 680.5 634.335 680.5 634.335Z" fill="#CECECE"/>
<path d="M992.953 555.454C945.217 541.566 892.393 539.116 842.113 539.003C791.941 538.891 738.879 541.606 691.273 555.454C681.887 558.184 685.934 570.38 695.418 567.622C741.978 554.078 793.065 551.732 842.113 551.623C891.062 551.514 942.373 554.114 988.809 567.622C998.293 570.38 1002.34 558.185 992.953 555.454Z" fill="#CECECE"/>
<path d="M702.5 634.335H990.5V648.335H702.5V634.335Z" fill="#CECECE"/>
<path d="M718.5 685.025C718.5 688.51 714.805 691.335 710.5 691.335C706.195 691.335 702.5 688.511 702.5 685.025V634.548C702.5 631.063 706.195 628.238 710.5 628.238C714.805 628.238 718.5 631.062 718.5 634.548V685.025Z" fill="#CECECE"/>
<path d="M990.5 685.025C990.5 688.51 986.805 691.335 982.5 691.335C978.195 691.335 974.5 688.511 974.5 685.025V634.548C974.5 631.063 978.195 628.238 982.5 628.238C986.805 628.238 990.5 631.062 990.5 634.548V685.025Z" fill="#CECECE"/>
<path d="M1503.18 639.346H1509.18V690.346H1503.18V639.346Z" fill="#6C992B"/>
<path d="M1538.63 631.017C1538.1 627.53 1533.53 625.021 1526.69 623.856C1528.84 617.26 1528.75 612.041 1525.91 609.95C1523.07 607.859 1518.06 609.322 1512.4 613.333C1509.26 607.148 1505.5 603.522 1502.02 604.051C1498.53 604.581 1496.02 609.158 1494.86 615.996C1488.26 613.846 1483.04 613.935 1480.95 616.774C1478.86 619.615 1480.32 624.624 1484.33 630.285C1478.15 633.428 1474.52 637.182 1475.05 640.669C1475.58 644.157 1480.16 646.663 1487 647.831C1484.85 654.425 1484.93 659.644 1487.77 661.734C1490.61 663.826 1495.63 662.363 1501.28 658.351C1504.43 664.537 1508.18 668.164 1511.67 667.634C1515.16 667.104 1517.66 662.528 1518.83 655.688C1525.43 657.839 1530.64 657.75 1532.73 654.91C1534.83 652.07 1533.36 647.06 1529.35 641.401C1535.54 638.257 1539.16 634.504 1538.63 631.017Z" fill="#CCBCED"/>
<path d="M1518.52 636.674C1518.52 639.856 1517.25 642.909 1515 645.159C1512.75 647.41 1509.7 648.674 1506.52 648.674C1503.33 648.674 1500.28 647.41 1498.03 645.159C1495.78 642.909 1494.52 639.856 1494.52 636.674C1494.52 633.491 1495.78 630.439 1498.03 628.189C1500.28 625.938 1503.33 624.674 1506.52 624.674C1509.7 624.674 1512.75 625.938 1515 628.189C1517.25 630.439 1518.52 633.491 1518.52 636.674V636.674Z" fill="#FFFF92"/>
<path d="M317.997 609.727V690.7H352.164V609.727C346.549 610.358 340.935 610.674 335 610.674C329.225 610.674 323.451 610.358 317.997 609.727Z" fill="#884E31"/>
<path d="M429 494.029C429 398.534 386.973 265 335 265C283.027 265 241 398.534 241 494.029C241 578.79 274.205 604.834 317.997 609.727C323.611 610.358 329.225 610.674 335 610.674C340.775 610.674 346.549 610.358 352.164 609.727C395.795 604.834 429 578.79 429 494.029Z" fill="#8ECC89"/>
<path d="M505.672 621.808V692.7H537.477V621.808C532.251 622.361 527.025 622.637 521.5 622.637C516.125 622.637 510.749 622.361 505.672 621.808Z" fill="#884E31"/>
<path d="M609 520.515C609 436.909 569.879 320 521.5 320C473.121 320 434 436.909 434 520.515C434 594.723 464.909 617.524 505.672 621.808C510.898 622.361 516.125 622.637 521.5 622.637C526.875 622.637 532.251 622.361 537.477 621.808C578.091 617.524 609 594.723 609 520.515Z" fill="#8ECC89"/>
<path d="M141.183 639.346H147.183V690.346H141.183V639.346Z" fill="#6C992B"/>
<path d="M176.633 631.017C176.103 627.53 171.526 625.021 164.687 623.856C166.838 617.26 166.75 612.041 163.909 609.95C161.069 607.859 156.059 609.322 150.4 613.333C147.256 607.148 143.504 603.522 140.016 604.051C136.529 604.581 134.021 609.158 132.855 615.996C126.259 613.846 121.04 613.935 118.949 616.774C116.857 619.615 118.322 624.624 122.333 630.285C116.148 633.428 112.521 637.182 113.051 640.669C113.58 644.157 118.156 646.663 124.995 647.831C122.845 654.425 122.933 659.644 125.773 661.734C128.613 663.826 133.625 662.363 139.283 658.351C142.426 664.537 146.18 668.164 149.668 667.634C153.156 667.104 155.663 662.528 156.83 655.688C163.425 657.839 168.643 657.75 170.734 654.91C172.826 652.07 171.362 647.06 167.352 641.401C173.537 638.257 177.162 634.504 176.633 631.017Z" fill="#CCBCED"/>
<path d="M156.516 636.674C156.516 639.856 155.252 642.909 153.001 645.159C150.751 647.41 147.699 648.674 144.516 648.674C141.334 648.674 138.281 647.41 136.031 645.159C133.78 642.909 132.516 639.856 132.516 636.674C132.516 633.491 133.78 630.439 136.031 628.189C138.281 625.938 141.334 624.674 144.516 624.674C147.699 624.674 150.751 625.938 153.001 628.189C155.252 630.439 156.516 633.491 156.516 636.674V636.674Z" fill="#FFFF92"/>
<path d="M77.7856 639.072H83.7856V690.072H77.7856V639.072Z" fill="#75B22D"/>
<path d="M112.543 627.084C111.355 623.115 107.175 620.862 103.206 622.051L96.3206 624.114L99.9276 617.423C101.893 613.777 100.531 609.228 96.8846 607.263C93.2376 605.297 88.6886 606.659 86.7236 610.306L83.3135 616.63L81.1336 609.351C79.9456 605.382 75.7656 603.129 71.7966 604.318C67.8276 605.507 65.5746 609.685 66.7636 613.654L68.8256 620.537L62.1356 616.931C58.4896 614.965 53.9406 616.328 51.9746 619.975C50.0086 623.621 51.3706 628.169 55.0176 630.135L62.5886 634.217L54.3506 636.684C50.3816 637.872 48.1286 642.052 49.3176 646.021C50.5056 649.989 54.6846 652.243 58.6536 651.054L65.9336 648.873L62.5236 655.199C60.5576 658.844 61.9196 663.392 65.5656 665.359C69.2116 667.325 73.7606 665.963 75.7276 662.316L79.3326 655.625L81.3956 662.51C82.5836 666.479 86.7636 668.733 90.7326 667.544C94.7006 666.356 96.9546 662.176 95.7656 658.207L93.5845 650.926L99.9096 654.336C103.556 656.303 108.104 654.94 110.071 651.293C112.036 647.647 110.674 643.098 107.028 641.132L101.584 638.197L107.51 636.422C111.477 635.232 113.731 631.052 112.543 627.084Z" fill="#FF9C9C"/>
<path d="M93.1186 636.4C93.1186 639.582 91.8543 642.635 89.6038 644.885C87.3534 647.135 84.3012 648.4 81.1186 648.4C77.936 648.4 74.8837 647.135 72.6333 644.885C70.3829 642.635 69.1186 639.582 69.1186 636.4C69.1186 633.217 70.3829 630.165 72.6333 627.914C74.8837 625.664 77.936 624.4 81.1186 624.4C84.3012 624.4 87.3534 625.664 89.6038 627.914C91.8543 630.165 93.1186 633.217 93.1186 636.4Z" fill="#FFFF92"/>
<path d="M205.786 642.072H211.786V693.072H205.786V642.072Z" fill="#75B22D"/>
<path d="M240.543 630.084C239.355 626.115 235.175 623.862 231.206 625.051L224.321 627.114L227.928 620.423C229.893 616.777 228.531 612.228 224.885 610.263C221.238 608.297 216.689 609.659 214.724 613.306L211.314 619.63L209.134 612.351C207.946 608.382 203.766 606.129 199.797 607.318C195.828 608.507 193.575 612.685 194.764 616.654L196.826 623.537L190.136 619.931C186.49 617.965 181.941 619.328 179.975 622.975C178.009 626.621 179.371 631.169 183.018 633.135L190.589 637.217L182.351 639.684C178.382 640.872 176.129 645.052 177.318 649.021C178.506 652.989 182.685 655.243 186.654 654.054L193.934 651.873L190.524 658.199C188.558 661.844 189.92 666.392 193.566 668.359C197.212 670.325 201.761 668.963 203.728 665.316L207.333 658.625L209.396 665.51C210.584 669.479 214.764 671.733 218.733 670.544C222.701 669.356 224.955 665.176 223.766 661.207L221.585 653.926L227.91 657.336C231.556 659.303 236.104 657.94 238.071 654.293C240.036 650.647 238.674 646.098 235.028 644.132L229.584 641.197L235.51 639.422C239.477 638.232 241.731 634.052 240.543 630.084Z" fill="#FF9C9C"/>
<path d="M221.119 639.4C221.119 642.582 219.854 645.635 217.604 647.885C215.353 650.135 212.301 651.4 209.119 651.4C205.936 651.4 202.884 650.135 200.633 647.885C198.383 645.635 197.119 642.582 197.119 639.4C197.119 636.217 198.383 633.165 200.633 630.914C202.884 628.664 205.936 627.4 209.119 627.4C212.301 627.4 215.353 628.664 217.604 630.914C219.854 633.165 221.119 636.217 221.119 639.4Z" fill="#FFFF92"/>
<path d="M1442.6 329L1434 318.3L1442.6 307.6H1400.5V329H1442.6Z" fill="#CCBCED"/>
<path d="M1442.6 329L1434 318.3L1442.6 307.6H1400.5V329H1442.6Z" fill="#CCBCED"/>
<path d="M1321.6 574.7H1313.7C1284.5 574.7 1261.5 600.3 1239.2 625.1C1217.1 649.6 1194.3 674.9 1169.1 674.9H1126C1121 674.9 1117 678.9 1117 683.9V690.3H1169.1C1201.2 690.3 1226.3 662.4 1250.7 635.4C1271.7 612.1 1291.5 590.1 1313.8 590.1H1321.7V589.9V574.7H1321.6Z" fill="#CCBCED"/>
<path d="M1321.6 574.7H1313.7C1284.5 574.7 1261.5 600.3 1239.2 625.1C1217.1 649.6 1194.3 674.9 1169.1 674.9H1126C1121 674.9 1117 678.9 1117 683.9V690.3H1169.1C1201.2 690.3 1226.3 662.4 1250.7 635.4C1271.7 612.1 1291.5 590.1 1313.8 590.1H1321.7V589.9V574.7H1321.6Z" fill="#CCBCED"/>
<path d="M1435.9 582.3V574.7H1428.3V582.3C1428.3 586.5 1424.9 589.9 1420.7 589.9H1443.6C1439.3 589.9 1435.9 586.5 1435.9 582.3Z" fill="#CECECE"/>
<path d="M1435.9 582.3V574.7H1428.3V582.3C1428.3 586.5 1424.9 589.9 1420.7 589.9H1443.6C1439.3 589.9 1435.9 586.5 1435.9 582.3Z" fill="#CECECE"/>
<path d="M1390.2 582.3V574.7H1382.6V582.3C1382.6 586.5 1379.2 589.9 1375 589.9H1397.9C1393.6 589.9 1390.2 586.5 1390.2 582.3Z" fill="#CECECE"/>
<path d="M1390.2 582.3V574.7H1382.6V582.3C1382.6 586.5 1379.2 589.9 1375 589.9H1397.9C1393.6 589.9 1390.2 586.5 1390.2 582.3Z" fill="#CECECE"/>
<path d="M1367.3 582.3V574.7H1359.7V582.3C1359.7 586.5 1356.3 589.9 1352.1 589.9H1375C1370.7 589.9 1367.3 586.5 1367.3 582.3Z" fill="#CECECE"/>
<path d="M1367.3 582.3V574.7H1359.7V582.3C1359.7 586.5 1356.3 589.9 1352.1 589.9H1375C1370.7 589.9 1367.3 586.5 1367.3 582.3Z" fill="#CECECE"/>
<path d="M1413 582.3V574.7H1405.4V582.3C1405.4 586.5 1402 589.9 1397.8 589.9H1420.7C1416.4 589.9 1413 586.5 1413 582.3Z" fill="#CECECE"/>
<path d="M1413 582.3V574.7H1405.4V582.3C1405.4 586.5 1402 589.9 1397.8 589.9H1420.7C1416.4 589.9 1413 586.5 1413 582.3Z" fill="#CECECE"/>
<path d="M1344.5 582.3V574.7H1336.9V554.4V546.8V517.5V509.9V435H1321.6V509.9V517.5V546.8V554.4V574.7V589.9V590.1V676.3H1336.8V590.1V589.9H1352C1347.9 589.9 1344.5 586.5 1344.5 582.3Z" fill="#CECECE"/>
<path d="M1344.5 582.3V574.7H1336.9V554.4V546.8V517.5V509.9V435H1321.6V509.9V517.5V546.8V554.4V574.7V589.9V590.1V676.3H1336.8V590.1V589.9H1352C1347.9 589.9 1344.5 586.5 1344.5 582.3Z" fill="#CECECE"/>
<path d="M1451.1 509.8H1458.7V517.4H1451.1V509.8Z" fill="#CECECE"/>
<path d="M1451.1 509.8H1458.7V517.4H1451.1V509.8Z" fill="#CECECE"/>
<path d="M1336.9 509.8H1344.5V517.4H1336.9V509.8Z" fill="#CECECE"/>
<path d="M1336.9 509.8H1344.5V517.4H1336.9V509.8Z" fill="#CECECE"/>
<path d="M1405.4 509.8H1413V517.4H1405.4V509.8Z" fill="#CECECE"/>
<path d="M1405.4 509.8H1413V517.4H1405.4V509.8Z" fill="#CECECE"/>
<path d="M1359.7 509.8H1367.3V517.4H1359.7V509.8Z" fill="#CECECE"/>
<path d="M1359.7 509.8H1367.3V517.4H1359.7V509.8Z" fill="#CECECE"/>
<path d="M1428.3 509.8H1435.9V517.4H1428.3V509.8Z" fill="#CECECE"/>
<path d="M1428.3 509.8H1435.9V517.4H1428.3V509.8Z" fill="#CECECE"/>
<path d="M1382.6 509.8H1390.2V517.4H1382.6V509.8Z" fill="#CECECE"/>
<path d="M1382.6 509.8H1390.2V517.4H1382.6V509.8Z" fill="#CECECE"/>
<path d="M1451.1 546.8H1458.7V554.4H1451.1V546.8Z" fill="#CECECE"/>
<path d="M1451.1 546.8H1458.7V554.4H1451.1V546.8Z" fill="#CECECE"/>
<path d="M1382.6 546.8H1390.2V554.4H1382.6V546.8Z" fill="#CECECE"/>
<path d="M1382.6 546.8H1390.2V554.4H1382.6V546.8Z" fill="#CECECE"/>
<path d="M1359.7 546.8H1367.3V554.4H1359.7V546.8Z" fill="#CECECE"/>
<path d="M1359.7 546.8H1367.3V554.4H1359.7V546.8Z" fill="#CECECE"/>
<path d="M1428.3 546.8H1435.9V554.4H1428.3V546.8Z" fill="#CECECE"/>
<path d="M1428.3 546.8H1435.9V554.4H1428.3V546.8Z" fill="#CECECE"/>
<path d="M1405.4 546.8H1413V554.4H1405.4V546.8Z" fill="#CECECE"/>
<path d="M1405.4 546.8H1413V554.4H1405.4V546.8Z" fill="#CECECE"/>
<path d="M1336.9 546.8H1344.5V554.4H1336.9V546.8Z" fill="#CECECE"/>
<path d="M1336.9 546.8H1344.5V554.4H1336.9V546.8Z" fill="#CECECE"/>
<path d="M1359.7 582.3V574.7V554.4V546.8V517.5V509.9V482C1359.7 477.8 1356.3 474.4 1352.1 474.4C1347.9 474.4 1344.5 477.8 1344.5 482V509.9V517.5V546.8V554.4V574.7V582.3C1344.5 586.5 1347.9 589.9 1352.1 589.9C1356.3 589.9 1359.7 586.5 1359.7 582.3Z" fill="#CECECE"/>
<path d="M1359.7 582.3V574.7V554.4V546.8V517.5V509.9V482C1359.7 477.8 1356.3 474.4 1352.1 474.4C1347.9 474.4 1344.5 477.8 1344.5 482V509.9V517.5V546.8V554.4V574.7V582.3C1344.5 586.5 1347.9 589.9 1352.1 589.9C1356.3 589.9 1359.7 586.5 1359.7 582.3Z" fill="#CECECE"/>
<path d="M1382.6 582.3V574.7V554.4V546.8V517.5V509.9V482C1382.6 477.8 1379.2 474.4 1375 474.4C1370.8 474.4 1367.4 477.8 1367.4 482V509.9V517.5V546.8V554.4V574.7V582.3C1367.4 586.5 1370.8 589.9 1375 589.9C1379.1 589.9 1382.6 586.5 1382.6 582.3Z" fill="#CECECE"/>
<path d="M1382.6 582.3V574.7V554.4V546.8V517.5V509.9V482C1382.6 477.8 1379.2 474.4 1375 474.4C1370.8 474.4 1367.4 477.8 1367.4 482V509.9V517.5V546.8V554.4V574.7V582.3C1367.4 586.5 1370.8 589.9 1375 589.9C1379.1 589.9 1382.6 586.5 1382.6 582.3Z" fill="#CECECE"/>
<path d="M1405.4 582.3V574.7V554.4V546.8V517.5V509.9V482C1405.4 477.8 1402 474.4 1397.8 474.4C1393.6 474.4 1390.2 477.8 1390.2 482V509.9V517.5V546.8V554.4V574.7V582.3C1390.2 586.5 1393.6 589.9 1397.8 589.9C1402 589.9 1405.4 586.5 1405.4 582.3Z" fill="#CECECE"/>
<path d="M1405.4 582.3V574.7V554.4V546.8V517.5V509.9V482C1405.4 477.8 1402 474.4 1397.8 474.4C1393.6 474.4 1390.2 477.8 1390.2 482V509.9V517.5V546.8V554.4V574.7V582.3C1390.2 586.5 1393.6 589.9 1397.8 589.9C1402 589.9 1405.4 586.5 1405.4 582.3Z" fill="#CECECE"/>
<path d="M1428.3 582.3V574.7V554.4V546.8V517.5V509.9V482C1428.3 477.8 1424.9 474.4 1420.7 474.4C1416.5 474.4 1413.1 477.8 1413.1 482V509.9V517.5V546.8V554.4V574.7V582.3C1413.1 586.5 1416.5 589.9 1420.7 589.9C1424.9 589.9 1428.3 586.5 1428.3 582.3Z" fill="#CECECE"/>
<path d="M1428.3 582.3V574.7V554.4V546.8V517.5V509.9V482C1428.3 477.8 1424.9 474.4 1420.7 474.4C1416.5 474.4 1413.1 477.8 1413.1 482V509.9V517.5V546.8V554.4V574.7V582.3C1413.1 586.5 1416.5 589.9 1420.7 589.9C1424.9 589.9 1428.3 586.5 1428.3 582.3Z" fill="#CECECE"/>
<path d="M1451.1 582.3V574.7V554.4V546.8V517.5V509.9V482C1451.1 477.8 1447.7 474.4 1443.5 474.4C1439.3 474.4 1435.9 477.8 1435.9 482V509.9V517.5V546.8V554.4V574.7V582.3C1435.9 586.5 1439.3 589.9 1443.5 589.9C1447.7 589.9 1451.1 586.5 1451.1 582.3Z" fill="#CECECE"/>
<path d="M1451.1 582.3V574.7V554.4V546.8V517.5V509.9V482C1451.1 477.8 1447.7 474.4 1443.5 474.4C1439.3 474.4 1435.9 477.8 1435.9 482V509.9V517.5V546.8V554.4V574.7V582.3C1435.9 586.5 1439.3 589.9 1443.5 589.9C1447.7 589.9 1451.1 586.5 1451.1 582.3Z" fill="#CECECE"/>
<path d="M1400.5 340.7V329V307.7V305.7C1400.5 304.2 1399.3 303 1397.8 303C1396.3 303 1395.1 304.2 1395.1 305.7V340.8L1310.8 419.8V435H1321.6H1336.8H1458.7H1473.9H1484.7V419.8L1400.5 340.7Z" fill="#FFFF92"/>
<path d="M1400.5 340.7V329V307.7V305.7C1400.5 304.2 1399.3 303 1397.8 303C1396.3 303 1395.1 304.2 1395.1 305.7V340.8L1310.8 419.8V435H1321.6H1336.8H1458.7H1473.9H1484.7V419.8L1400.5 340.7Z" fill="#FFFF92"/>
<path d="M1458.7 509.8V517.4V546.7V554.3V574.6H1451.1V582.2C1451.1 586.4 1447.7 589.8 1443.5 589.8H1458.7V676.3H1473.9V435H1458.7V509.8V509.8Z" fill="#CECECE"/>
<path d="M1458.7 509.8V517.4V546.7V554.3V574.6H1451.1V582.2C1451.1 586.4 1447.7 589.8 1443.5 589.8H1458.7V676.3H1473.9V435H1458.7V509.8V509.8Z" fill="#CECECE"/>
<path d="M1314.6 676.3V690.3H1321.6H1336.9H1343.9V676.3H1336.9H1321.6H1314.6Z" fill="#808080"/>
<path d="M1314.6 676.3V690.3H1321.6H1336.9H1343.9V676.3H1336.9H1321.6H1314.6Z" fill="#808080"/>
<path d="M1451.7 676.3V690.3H1458.7H1474H1481V676.3H1474H1458.7H1451.7Z" fill="#808080"/>
<path d="M1451.7 676.3V690.3H1458.7H1474H1481V676.3H1474H1458.7H1451.7Z" fill="#808080"/>
<path d="M1567.79 639.072H1573.79V690.072H1567.79V639.072Z" fill="#75B22D"/>
<path d="M1602.54 627.084C1601.35 623.115 1597.17 620.862 1593.21 622.051L1586.32 624.114L1589.93 617.423C1591.89 613.777 1590.53 609.228 1586.88 607.263C1583.24 605.297 1578.69 606.659 1576.72 610.306L1573.31 616.63L1571.13 609.351C1569.95 605.382 1565.77 603.129 1561.8 604.318C1557.83 605.507 1555.57 609.685 1556.76 613.654L1558.83 620.537L1552.14 616.931C1548.49 614.965 1543.94 616.328 1541.97 619.975C1540.01 623.621 1541.37 628.169 1545.02 630.135L1552.59 634.217L1544.35 636.684C1540.38 637.872 1538.13 642.052 1539.32 646.021C1540.51 649.989 1544.68 652.243 1548.65 651.054L1555.93 648.873L1552.52 655.199C1550.56 658.844 1551.92 663.392 1555.57 665.359C1559.21 667.325 1563.76 665.963 1565.73 662.316L1569.33 655.625L1571.4 662.51C1572.58 666.479 1576.76 668.733 1580.73 667.544C1584.7 666.356 1586.95 662.176 1585.77 658.207L1583.58 650.926L1589.91 654.336C1593.56 656.303 1598.1 654.94 1600.07 651.293C1602.04 647.647 1600.67 643.098 1597.03 641.132L1591.58 638.197L1597.51 636.422C1601.48 635.232 1603.73 631.052 1602.54 627.084Z" fill="#FF9C9C"/>
<path d="M1583.12 636.4C1583.12 639.582 1581.85 642.635 1579.6 644.885C1577.35 647.135 1574.3 648.4 1571.12 648.4C1567.94 648.4 1564.88 647.135 1562.63 644.885C1560.38 642.635 1559.12 639.582 1559.12 636.4C1559.12 633.217 1560.38 630.165 1562.63 627.914C1564.88 625.664 1567.94 624.4 1571.12 624.4C1574.3 624.4 1577.35 625.664 1579.6 627.914C1581.85 630.165 1583.12 633.217 1583.12 636.4Z" fill="#FFFF92"/>
<ellipse cx="318" cy="99.5" rx="48" ry="37.5" fill="white"/>
<ellipse cx="395" cy="120.5" rx="48" ry="37.5" fill="white"/>
<ellipse cx="395" cy="120.5" rx="48" ry="37.5" fill="white"/>
<ellipse cx="891" cy="211.5" rx="48" ry="37.5" fill="white"/>
<ellipse cx="816" cy="211.5" rx="48" ry="37.5" fill="white"/>
<ellipse cx="756" cy="195.5" rx="48" ry="37.5" fill="white"/>
<ellipse cx="891" cy="174.5" rx="48" ry="37.5" fill="white"/>
<ellipse cx="816" cy="174.5" rx="48" ry="37.5" fill="white"/>
<ellipse cx="941" cy="194.5" rx="48" ry="37.5" fill="white"/>
<ellipse cx="1350" cy="190.5" rx="48" ry="37.5" fill="white"/>
<ellipse cx="1302" cy="227.5" rx="48" ry="37.5" fill="white"/>
<ellipse cx="1273" cy="175" rx="48" ry="38" fill="white"/>
<ellipse cx="1225" cy="213.5" rx="48" ry="37.5" fill="white"/>
<ellipse cx="318" cy="120.5" rx="48" ry="37.5" fill="white"/>
<ellipse cx="347" cy="174.5" rx="48" ry="37.5" fill="white"/>
<ellipse cx="281" cy="174.5" rx="48" ry="37.5" fill="white"/>
<ellipse cx="222" cy="157.5" rx="48" ry="37.5" fill="white"/>
<ellipse cx="251" cy="120.5" rx="48" ry="37.5" fill="white"/>
</svg>
