<svg width="1600" height="985" viewBox="0 0 1600 985" fill="none" xmlns="http://www.w3.org/2000/svg">
<g clip-path="url(#clip0)">
<path d="M1600 5H0V985H1600V5Z" fill="#C7EAFB"/>
<path d="M30 5V985" stroke="#FFFDED" stroke-width="4"/>
<path d="M170 5V985" stroke="#FFFDED" stroke-width="4"/>
<path d="M310 5V985" stroke="#FFFDED" stroke-width="4"/>
<path d="M450 5V985" stroke="#FFFDED" stroke-width="4"/>
<path d="M590 5V985" stroke="#FFFDED" stroke-width="4"/>
<path d="M730 5V985" stroke="#FFFDED" stroke-width="4"/>
<path d="M870 5V985" stroke="#FFFDED" stroke-width="4"/>
<path d="M1010 5V985" stroke="#FFFDED" stroke-width="4"/>
<path d="M1150 5V985" stroke="#FFFDED" stroke-width="4"/>
<path d="M1290 5V985" stroke="#FFFDED" stroke-width="4"/>
<path d="M1430 5V985" stroke="#FFFDED" stroke-width="4"/>
<path d="M1570 5V985" stroke="#FFFDED" stroke-width="4"/>
<path d="M0 126H1600" stroke="#FFFDED" stroke-width="4"/>
<path d="M0 249.5H1600" stroke="#FFFDED" stroke-width="4"/>
<path d="M0 373H1600" stroke="#FFFDED" stroke-width="4"/>
<path d="M0 496.5H1600" stroke="#FFFDED" stroke-width="4"/>
<path d="M0 620H1600" stroke="#FFFDED" stroke-width="4"/>
<path d="M0 743.5H1600" stroke="#FFFDED" stroke-width="4"/>
<path d="M0 867H1600" stroke="#FFFDED" stroke-width="4"/>
<path d="M1184.84 0H415.779C396.6 0 389.269 13.0815 388 19.6223V208.403C411.34 319.934 528.874 541.576 812.297 535.893C1095.72 530.209 1197.53 315.198 1213 208.403V19.6223C1213 3.92447 1194.22 0 1184.84 0Z" fill="white" stroke="#BBBBBB" stroke-width="10"/>
<path d="M1102.67 142H492.673C472.276 142 467.177 154.849 467.177 161.273C466.289 159.808 465.046 166.616 467.177 205.568C469.84 254.258 552.416 472.011 816.888 470.996C1028.47 470.185 1116.11 293.706 1133.5 205.568C1133.88 196.551 1134.41 175.339 1133.5 162.626C1132.58 149.912 1112.57 143.578 1102.67 142Z" fill="#F7F7F7" stroke="#C9C9C9" stroke-width="8"/>
<path d="M833.189 41.7163L890.932 117.519C894.757 125.754 900.11 144.456 890.932 153.39C881.755 162.324 861.359 163.204 852.309 162.527L845.808 158.819L833.189 263.034C829.11 269.689 816.669 283 799.537 283C782.405 283 774.298 269.689 772.386 263.034L754.413 106.69C749.569 92.3643 744.623 59.3134 763.591 41.7163C782.558 24.1192 817.893 34.3842 833.189 41.7163Z" fill="#C4C4C4"/>
<path d="M754.413 106.69L845.808 158.819M754.413 106.69C749.569 92.3643 744.623 59.3134 763.591 41.7163C782.558 24.1192 817.893 34.3842 833.189 41.7163L890.932 117.519C894.757 125.754 900.11 144.456 890.932 153.39C881.755 162.324 861.359 163.204 852.309 162.527L845.808 158.819L754.413 106.69ZM754.413 106.69L772.386 263.034C774.298 269.689 782.405 283 799.537 283C816.669 283 829.11 269.689 833.189 263.034L845.808 158.819L754.413 106.69Z" stroke="#979797" stroke-width="8"/>
<path d="M790.5 77C795.747 77 800 73.1944 800 68.5C800 63.8056 795.747 60 790.5 60C785.253 60 781 63.8056 781 68.5C781 73.1944 785.253 77 790.5 77Z" fill="#C4C4C4" stroke="#979797" stroke-width="8"/>
<path d="M935.087 45.539C943.805 38.7193 956.498 39.6047 961.75 40.8997L1009.2 109.664C1011.26 115.428 1010.15 126.316 996.298 132.62C986.022 134.168 979.172 130.745 975.026 126.705C971.018 130.389 957.703 136.26 940.011 128.5C922.315 120.738 924.407 103.602 927.665 96.0046C923.662 94.3608 919.832 91.6268 919.131 87.4206C917.955 80.369 924.981 74.2341 928.64 72.0483C927.157 66.0531 926.37 52.3588 935.087 45.539Z" fill="#FFE2E2"/>
<path d="M927.665 96.0046C924.407 103.602 922.315 120.739 940.011 128.5C957.703 136.26 971.018 130.389 975.026 126.705M935.107 97.9603C933.157 97.728 930.372 97.1158 927.665 96.0046L935.107 97.9603ZM927.665 96.0046C923.662 94.3609 919.832 91.6269 919.131 87.4206C917.955 80.369 924.981 74.2342 928.64 72.0483C927.157 66.0532 926.37 52.3588 935.087 45.5391C943.805 38.7193 956.498 39.6047 961.75 40.8997L1009.2 109.664C1011.26 115.428 1010.15 126.316 996.298 132.62C980.073 135.063 972.382 125.121 970.412 119.914L927.665 96.0046Z" stroke="#FFC5C5"/>
<path d="M1027.66 29.2766L1027.66 29.2787L1027.68 29.2806L1059.18 36.4275C1066.19 38.2705 1073.64 42.748 1078.73 48.9962C1083.81 55.2258 1086.49 63.1591 1084.14 71.9822C1081.66 81.2446 1080.04 86.8226 1079.03 90.0302C1078.56 91.5048 1078.23 92.457 1078 93.029L1077.63 93.6799C1074.98 98.2214 1069.64 104.788 1062.3 109.625C1055 114.447 1045.82 117.481 1035.37 115.259C1024.35 112.917 1016.8 111.266 1011.85 110.134C1009.37 109.568 1007.55 109.133 1006.27 108.809C1004.96 108.471 1004.33 108.278 1004.14 108.199L1003.88 108.093L1003.61 108.073C1003.06 108.033 1000.78 107.633 995.769 106.483C990.831 105.348 983.344 103.508 972.495 100.643C962.182 97.9228 955.95 91.2225 952.336 83.8006C948.709 76.3542 947.78 68.295 948.041 63.1853L948.079 62.4529C948.207 61.8583 948.456 60.8862 948.883 59.4022C949.81 56.1745 951.549 50.6252 954.618 41.5039C957.527 32.8446 964.686 27.1622 972.809 24.0106C980.97 20.845 989.951 20.3004 996.229 21.7949L1027.66 29.2766Z" fill="#FFC1C1" stroke="#FFE7E7" stroke-width="4"/>
<path d="M972.403 48.7956C974.519 41.6655 986.466 36.9896 994.326 38.1868L1050.53 51.8079C1058 54.3255 1065.76 63.7777 1063.65 70.9079L1059.64 84.4414C1058.08 89.7233 1048.65 99.1129 1039.22 97.8916C1029.81 96.6709 1015.02 92.0246 1008.93 90.5503C1002.85 89.0761 987.472 86.4105 978.637 83.2091C969.811 80.0077 966.833 67.6108 968.398 62.3295L972.403 48.7956Z" fill="#FFA2A2" stroke="#FFCECE"/>
</g>
<defs>
<clipPath id="clip0">
<rect width="1600" height="985" fill="white"/>
</clipPath>
</defs>
</svg>
